<?xml version="1.0" standalone="no"?>
<!DOCTYPE svg PUBLIC "-//W3C//DTD SVG 1.1//EN" "http://www.w3.org/Graphics/SVG/1.1/DTD/svg11.dtd">
<svg xmlns="http://www.w3.org/2000/svg" id="Capa_1" data-name="Capa 1" viewBox="0 0 1417.32 684.7" width="1417.3199462890625" height="684.7000122070312">
  <defs>
    <style>
      .cls-1 {
        fill: #d84915;
      }
    </style>
  </defs>
  <path class="cls-1" d="M1076.9.39s-33.45-2.96-83.18,10.36c-44.7,11.25-86.14,31.38-121.66,58.61-54.76,39.07-112.78,100.35-163.4,195.67C578.71-21.52,340.42.39,340.42.39,152.45.39,0,153.43,0,342.28s152.45,341.9,340.42,341.9c0,0,227.64,19.83,368.24-266.12,146.23,290.69,368.24,266.12,368.24,266.12,187.97,0,340.42-153.04,340.42-341.9S1264.87.39,1076.9.39h0ZM340.71,560.15c-120.18,0-217.87-97.39-217.87-217.87s97.39-217.87,217.87-217.87c0,0,7.1-.3,19.54.89,11.25.89,22.2,2.96,32.86,5.33,62.76,14.5,168.14,60.98,240.07,210.47-134.1,235.63-292.46,219.05-292.46,219.05h0ZM1060.92,560.15s-199.81,9.47-276.18-217.87c113.67-234.15,276.18-217.57,276.18-217.57,120.18,0,217.87,97.39,217.87,217.87s-97.69,217.57-217.87,217.57Z"/>
  <g id="Capa_2" data-name="Capa 2">
    <g>
      <g>
        <rect class="cls-1" x="314.66" y="116.42" width="97.69" height="452.31"/>
        <rect class="cls-1" x="477.18" y="131.82" width="66.9" height="393.4"/>
      </g>
      <g>
        <rect class="cls-1" x="995.2" y="116.13" width="97.69" height="452.31"/>
        <rect class="cls-1" x="863.48" y="159.64" width="66.9" height="393.4"/>
      </g>
    </g>
  </g>
</svg>