<svg width="1024" height="1024" viewBox="0 0 1024 1024" xmlns="http://www.w3.org/2000/svg" role="img" aria-label="Genealogic">
  <title>Genealogic isotipo</title>
  <path fill="#D74709" d="
    M 262 198
    A 116 116 0 1 1 262 430
    A 116 116 0 1 1 262 198
    Z

    M 762 198
    A 116 116 0 1 1 762 430
    A 116 116 0 1 1 762 198
    Z

    M 512 594
    A 116 116 0 1 1 512 826
    A 116 116 0 1 1 512 594
    Z

    M 239 382
    C 239 360 257 342 279 342
    C 301 342 319 360 319 382
    L 319 452
    C 319 470 334 485 352 485
    L 672 485
    C 690 485 705 470 705 452
    L 705 382
    C 705 360 723 342 745 342
    C 767 342 785 360 785 382
    L 785 452
    C 785 514 734 565 672 565
    L 559 565
    L 559 644
    C 559 670 538 691 512 691
    C 486 691 465 670 465 644
    L 465 565
    L 352 565
    C 290 565 239 514 239 452
    Z
  "/>
</svg>
