<?xml version="1.0" encoding="UTF-8"?>
<svg id="Capa_1" data-name="Capa 1" xmlns="http://www.w3.org/2000/svg" viewBox="0 0 2198.2 399.1">
  <defs>
    <style>
      .cls-1 {
        fill: #d74709;
      }
    </style>
  </defs>
  <path d="M147.4,314.1c-21.2,0-40.7-3.9-58.7-11.6-17.9-7.8-33.5-18.7-46.8-32.9-13.3-14.2-23.6-30.8-30.9-49.8C3.6,200.7,0,179.9,0,157.3s3.7-43.8,11-62.9c7.4-19.1,17.6-35.7,30.7-49.8,13.2-14.2,28.6-25.2,46.5-32.9C106,3.9,125.6.1,147.1.1s39.2,3.7,55.6,11c16.5,7.4,30.4,16.9,41.8,28.6s19.5,24.2,24.3,37.6l-35.4,17.6c-7-17.4-17.9-31.4-32.7-41.9-14.9-10.5-32.7-15.7-53.6-15.7s-39.4,5-55.6,15.1c-16.3,10-29,24-38.1,42s-13.7,38.9-13.7,62.9,4.6,44.5,13.9,62.5c9.2,18,22,32,38.2,42.1s34.7,15.1,55.6,15.1,34.3-3.9,49-11.8,26.4-18.8,35.2-32.7c8.7-13.9,13.1-29.9,13.1-48.2v-18.9l18.1,17.2h-115.8v-34.7h137.4v27c0,21.2-3.6,40.4-10.8,57.6-7.2,17.2-17.1,31.9-29.7,44.1-12.6,12.3-27.2,21.6-43.8,28-16.7,6.3-34.2,9.5-52.7,9.5h0Z"/>
  <path d="M432.6,314.1c-20.9,0-39.6-5-56-15.1-16.5-10.1-29.4-23.9-38.8-41.5s-14.1-37.2-14.1-59,4.7-41.7,14.1-58.8c9.4-17.2,22-30.7,37.8-40.6s33.7-14.9,53.8-14.9,30.3,2.9,42.8,8.8,23,13.8,31.7,23.7c8.7,9.9,15.4,21.2,20.1,33.9,4.7,12.7,7,25.8,7,39.4s-.2,6.7-.6,10.2c-.4,3.5-.9,7.1-1.4,10.6h-177.5v-33.1h155.9l-18.1,14.7c2.7-14.2,1.5-26.8-3.6-38s-12.6-20-22.5-26.5-21.2-9.8-33.7-9.8-24.1,3.3-34.5,10-18.5,16-24.3,28-8.1,26.3-7,42.9c-1.1,16.1,1.4,30.2,7.4,42.3,6,12.1,14.6,21.5,25.7,28.2,11.1,6.7,23.2,10,36.4,10s26.6-3.4,36.6-10.2c9.9-6.8,17.9-15.5,24.1-26.1l31.3,16.3c-4.3,10.1-10.9,19.3-19.9,27.6-9,8.3-19.6,14.9-31.9,19.8-12.5,4.7-26,7.2-40.8,7.2h0Z"/>
  <path d="M579.3,309.2V89h37v42.9l-6-3.7c5.4-13.9,14-24.7,25.9-32.5s25.9-11.6,42-11.6,29.4,3.5,41.6,10.6c12.2,7.1,21.8,16.9,28.9,29.4,7.1,12.5,10.6,26.7,10.6,42.5v142.5h-37.8v-130.2c0-12.3-2.1-22.6-6.4-31-4.3-8.4-10.4-15-18.3-19.6-7.9-4.6-16.9-6.9-27.1-6.9s-19.2,2.3-27.1,6.9c-7.9,4.6-14.1,11.2-18.7,19.8-4.6,8.6-6.8,18.9-6.8,30.8v130.3h-37.8Z"/>
  <path d="M912.3,314.1c-20.9,0-39.6-5-56-15.1-16.5-10.1-29.4-23.9-38.8-41.5-9.4-17.6-14.1-37.2-14.1-59s4.7-41.7,14.1-58.8c9.4-17.2,22-30.7,37.8-40.6s33.7-14.9,53.8-14.9,30.3,2.9,42.8,8.8,23,13.8,31.7,23.7,15.4,21.2,20.1,33.9c4.7,12.7,7,25.8,7,39.4s-.2,6.7-.6,10.2c-.4,3.5-.9,7.1-1.4,10.6h-177.6v-33.1h155.9l-18.1,14.7c2.7-14.2,1.5-26.8-3.6-38s-12.6-20-22.5-26.5-21.2-9.8-33.7-9.8-24.1,3.3-34.5,10-18.5,16-24.3,28-8.1,26.3-7,42.9c-1.1,16.1,1.4,30.2,7.4,42.3,6,12.1,14.6,21.5,25.7,28.2,11.1,6.7,23.2,10,36.4,10s26.6-3.4,36.6-10.2c9.9-6.8,17.9-15.5,24.1-26.1l31.3,16.3c-4.3,10.1-10.9,19.3-19.9,27.6-9,8.3-19.6,14.9-31.9,19.8-12.5,4.7-26,7.2-40.7,7.2h0Z"/>
  <path d="M1120,314.1c-14.2,0-26.8-2.7-37.8-8s-19.6-12.7-25.7-22.1c-6.2-9.4-9.2-20.2-9.2-32.5s2.5-22.3,7.6-31.7,12.9-17.4,23.5-23.9,23.9-11.2,40-13.9l79.9-13.5v31.9l-71.5,12.7c-13.9,2.5-24,6.9-30.3,13.3-6.3,6.4-9.4,14.4-9.4,23.9s3.5,16.5,10.6,22.5,16,9,26.7,9,25.5-2.9,35.6-8.8c10-5.9,17.9-13.8,23.5-23.9s8.4-21.1,8.4-33.1v-56.4c0-12-4.3-21.7-12.9-29.2s-20-11.2-34.1-11.2-23.2,3.3-32.7,9.8-16.5,15-21.1,25.3l-32.5-17.2c4-10.1,10.4-19.1,19.3-27.2,8.8-8,19.1-14.4,30.9-19s24.1-6.9,37-6.9,31.2,3.2,43.8,9.6c12.6,6.4,22.4,15.3,29.5,26.8,7.1,11.4,10.6,24.5,10.6,39.2v149.5h-36.6v-41.7l6.8,2.9c-4.6,8.4-10.8,16-18.7,22.7-7.9,6.7-17,11.8-27.3,15.5s-21.6,5.6-33.9,5.6h0Z"/>
  <path d="M1287.1,309.2V0h37.8v309.2h-37.8Z"/>
  <path d="M1909.4,53.9V4.9h37.8v49h-37.8ZM1909.4,309.2V89h37.8v220.1h-37.8v.1Z"/>
  <path d="M2105.4,314.1c-21.4,0-40.3-5-56.6-15.1s-29.3-23.8-38.8-41.3c-9.5-17.4-14.3-37-14.3-58.8s4.7-41.7,14.1-58.8c9.4-17.2,22.3-30.8,38.8-40.8,16.5-10.1,35.4-15.1,56.8-15.1s27.4,2.6,39.8,7.8c12.3,5.2,23.2,12.2,32.5,21,9.4,8.9,16.2,19,20.5,30.4l-33.3,16.7c-5.1-11.7-12.9-21.1-23.3-28.2-10.4-7.1-22.5-10.6-36.2-10.6s-25,3.3-35.6,10-18.9,15.9-25.1,27.8c-6.2,11.8-9.2,25.3-9.2,40.2s3.1,28,9.2,39.8c6.2,11.8,14.5,21.2,25.1,28s22.4,10.2,35.6,10.2,25.6-3.6,36-10.8c10.3-7.2,18.1-16.8,23.5-28.8l33.3,17.2c-4.3,11.4-11.1,21.6-20.5,30.4-9.4,8.9-20.2,15.9-32.5,21-12.3,5.2-25.6,7.8-39.8,7.8h0Z"/>
  <path d="M1817.7,89.3v31.1c-1.7-2.2-3.5-4.4-5.3-6.4.4,2.1.6,4.1.7,6.1.6,10.5-6.7,14.1-13.8,20.1-1.1.9-2.2,1.6-3.3,2.1,4.3,4.5,8.1,9.6,11.3,15.3,6.2,11,9.2,23.2,9.2,36.6s-3.1,25.9-9.2,37c-2.2,4-4.8,7.7-7.5,11.1.7,1.1,1.3,2.2,1.7,3.3,1.7,4.4,2,9.7,1.7,15.1,3,2.5,5,5.5,6.3,8.7,1.4,1.1,2.6,2.5,3.5,4.1,1.2-1.5,2.5-3.1,3.6-4.8v31.2c0,13.3-3,24.7-9,34.1s-14.1,16.5-24.1,21.2c-10,4.8-21.2,7.1-33.5,7.1s-29-3.6-39.6-10.8c-10.6-7.2-17.7-16-21.5-26.3l-34.9,16.3c4.8,11.4,11.8,21.4,21.1,30,9.2,8.6,20.4,15.3,33.3,20.2,13,4.9,27.1,7.4,42.4,7.4s38-4.3,53.6-12.9c15.7-8.6,27.9-20.4,36.8-35.3,8.8-15,13.3-32,13.3-51.1V89.3h-36.8,0Z"/>
  <path class="cls-1" d="M1735.6,84.3s-11.3-1-28.1,3.5c-15.1,3.8-29.1,10.6-41.1,19.8-18.5,13.2-38.1,33.9-55.2,66.1-43.9-96.8-124.4-89.4-124.4-89.4-63.5,0-115,51.7-115,115.5s51.5,115.5,115,115.5c0,0,76.9,6.7,124.4-89.9,49.4,98.2,124.4,89.9,124.4,89.9,63.5,0,115-51.7,115-115.5s-51.5-115.5-115-115.5h0ZM1486.9,273.4c-40.6,0-73.6-32.9-73.6-73.6s32.9-73.6,73.6-73.6c0,0,2.4-.1,6.6.3,3.8.3,7.5,1,11.1,1.8,21.2,4.9,56.8,20.6,81.1,71.1-45.3,79.6-98.8,74-98.8,74h0ZM1730.2,273.4s-67.5,3.2-93.3-73.6c38.4-79.1,93.3-73.5,93.3-73.5,40.6,0,73.6,32.9,73.6,73.6s-33,73.5-73.6,73.5Z"/>
  <g id="Capa_2" data-name="Capa 2">
    <g>
      <g>
        <rect class="cls-1" x="1478.1" y="123.5" width="33" height="152.8"/>
        <rect class="cls-1" x="1533" y="128.7" width="22.6" height="132.9"/>
      </g>
      <g>
        <rect class="cls-1" x="1708" y="123.4" width="33" height="152.8"/>
        <rect class="cls-1" x="1663.5" y="138.1" width="22.6" height="132.9"/>
      </g>
    </g>
  </g>
</svg>