<svg xmlns="http://www.w3.org/2000/svg" viewBox="0 0 1600 320" role="img" aria-label="Genealogic">
  <title>Genealogic</title>
  <g fill="#D74709" transform="translate(28,40)">
    <circle cx="61" cy="58" r="58"/>
    <circle cx="259" cy="58" r="58"/>
    <circle cx="160" cy="215" r="58"/>
    <path d="
      M 41 131
      C 41 122 48 115 57 115
      C 66 115 73 122 73 131
      L 73 159
      C 73 166 79 172 86 172
      L 234 172
      C 241 172 247 166 247 159
      L 247 131
      C 247 122 254 115 263 115
      C 272 115 279 122 279 131
      L 279 159
      C 279 184 259 204 234 204
      L 179 204
      L 179 232
      C 179 243 170 252 159 252
      C 148 252 139 243 139 232
      L 139 204
      L 86 204
      C 61 204 41 184 41 159
      Z
    "/>
  </g>
  <text
    x="370"
    y="218"
    fill="#111111"
    font-family="Inter, -apple-system, BlinkMacSystemFont, 'Segoe UI', Roboto, sans-serif"
    font-size="180"
    font-weight="700"
    letter-spacing="-4.5"
  >Genealogic</text>
</svg>
