<svg xmlns="http://www.w3.org/2000/svg" width="983" height="983" viewBox="133 116 983 983" fill="none" role="img" aria-label="Genealogic">
  <title>Genealogic isotipo</title>
  <path d="M 241 240 L 223 253 L 197 282 L 181 313 L 174 340 L 173 375 L 177 397 L 191 431 L 209 456 L 240 482 L 272 497 L 303 503 L 359 501 L 384 508 L 402 519 L 435 551 L 463 565 L 555 571 L 572 580 L 593 609 L 596 662 L 587 692 L 572 710 L 537 732 L 515 752 L 493 785 L 484 808 L 478 841 L 479 868 L 488 902 L 501 927 L 519 950 L 540 968 L 569 984 L 591 991 L 620 995 L 649 993 L 681 984 L 704 972 L 737 943 L 760 906 L 770 872 L 771 835 L 761 794 L 742 761 L 714 733 L 679 711 L 660 687 L 654 665 L 654 624 L 662 598 L 678 580 L 695 571 L 774 568 L 800 560 L 823 545 L 847 520 L 869 507 L 892 501 L 963 501 L 992 492 L 1025 472 L 1055 439 L 1066 419 L 1076 387 L 1076 336 L 1057 287 L 1025 251 L 984 228 L 932 220 L 887 229 L 841 257 L 822 278 L 807 304 L 797 336 L 795 371 L 808 426 L 808 447 L 800 469 L 780 491 L 746 505 L 504 505 L 469 490 L 455 476 L 445 457 L 442 431 L 455 381 L 455 341 L 446 308 L 422 269 L 384 238 L 335 221 L 283 223 Z" fill="#FE6620"/>
</svg>
